<svg width="192" height="34" viewBox="0 0 192 34" fill="none" xmlns="http://www.w3.org/2000/svg">
<path d="M27.6699 0.722656L30.5527 26H25.7363L23.6621 7.19141H23.5566L18.125 26.0879H12.7109L7.2793 7.19141H7.17383L5.09961 26H0.283203L3.16602 0.722656H9.59961L15.418 20.9902L21.2363 0.722656H27.6699ZM49.9238 25.1738C49.4434 25.373 48.916 25.5488 48.3418 25.7012C47.7793 25.8535 47.1875 25.9824 46.5664 26.0879C45.9453 26.1934 45.3125 26.2754 44.668 26.334C44.0352 26.3926 43.4141 26.4219 42.8047 26.4219C39.7227 26.4219 37.3906 25.6836 35.8086 24.207C34.2383 22.7188 33.4531 20.4453 33.4531 17.3867C33.4531 16.0273 33.6113 14.7383 33.9277 13.5195C34.2441 12.3008 34.7539 11.2344 35.457 10.3203C36.1719 9.39453 37.1035 8.66211 38.252 8.12305C39.4121 7.58398 40.8301 7.31445 42.5059 7.31445C45.4355 7.31445 47.6211 8.09375 49.0625 9.65234C50.5039 11.1992 51.2246 13.5664 51.2246 16.7539V18.1426H38.2344C38.2578 18.9395 38.3516 19.6426 38.5156 20.252C38.6797 20.8613 38.9492 21.377 39.3242 21.7988C39.7109 22.209 40.2148 22.5254 40.8359 22.748C41.457 22.959 42.2363 23.0645 43.1738 23.0645C43.9941 23.0645 44.8789 22.9648 45.8281 22.7656C46.7773 22.5547 47.7676 22.2559 48.7988 21.8691L49.9238 25.1738ZM46.4082 15.0137C46.3262 12.1191 45.0254 10.6719 42.5059 10.6719C41.2051 10.6719 40.2148 11.0469 39.5352 11.7969C38.8672 12.5469 38.457 13.6191 38.3047 15.0137H46.4082ZM62.3867 7.33203C63.5117 7.33203 64.6133 7.43164 65.6914 7.63086C66.7695 7.83008 67.7129 8.09375 68.5215 8.42188C68.3574 8.89062 68.1641 9.36523 67.9414 9.8457C67.7305 10.3262 67.5137 10.7832 67.291 11.2168C66.6934 11.0176 65.9961 10.8477 65.1992 10.707C64.4141 10.5664 63.6348 10.4961 62.8613 10.4961C62.416 10.4961 61.9883 10.5312 61.5781 10.6016C61.1797 10.6602 60.8281 10.7598 60.5234 10.9004C60.2305 11.041 59.9961 11.2285 59.8203 11.4629C59.6445 11.6855 59.5566 11.9609 59.5566 12.2891C59.5566 12.7461 59.668 13.1094 59.8906 13.3789C60.125 13.6367 60.4297 13.8477 60.8047 14.0117C61.1914 14.1758 61.6367 14.3105 62.1406 14.416C62.6445 14.5215 63.1719 14.6387 63.7227 14.7676C64.5781 14.9668 65.375 15.2188 66.1133 15.5234C66.8633 15.8281 67.5078 16.2207 68.0469 16.7012C68.5977 17.1699 69.0195 17.75 69.3125 18.4414C69.6172 19.1211 69.7637 19.9414 69.752 20.9023C69.7285 21.9336 69.4824 22.8008 69.0137 23.5039C68.5566 24.207 67.9473 24.7754 67.1855 25.209C66.4355 25.6426 65.5742 25.9531 64.6016 26.1406C63.6406 26.3281 62.6562 26.4219 61.6484 26.4219C60.9805 26.4219 60.3125 26.3867 59.6445 26.3164C58.9766 26.2461 58.3379 26.1406 57.7285 26C57.1191 25.8711 56.5508 25.7188 56.0234 25.543C55.4961 25.3555 55.0332 25.1504 54.6348 24.9277C54.834 24.4707 55.0566 23.9961 55.3027 23.5039C55.5488 23.0117 55.7891 22.5547 56.0234 22.1328C56.3516 22.2734 56.7266 22.4141 57.1484 22.5547C57.582 22.6836 58.0332 22.8008 58.502 22.9062C58.9824 23 59.4688 23.082 59.9609 23.1523C60.4648 23.2109 60.957 23.2402 61.4375 23.2402C61.9297 23.2402 62.3984 23.1992 62.8438 23.1172C63.2891 23.0352 63.6758 22.9062 64.0039 22.7305C64.3438 22.543 64.6074 22.3027 64.7949 22.0098C64.9941 21.7051 65.0938 21.3359 65.0938 20.9023C65.0938 20.4102 64.9766 20.0176 64.7422 19.7246C64.5195 19.4316 64.2148 19.1973 63.8281 19.0215C63.4414 18.8457 62.9961 18.7051 62.4922 18.5996C61.9883 18.4941 61.4668 18.3887 60.9277 18.2832C60.1074 18.1191 59.3281 17.8848 58.5898 17.5801C57.8516 17.2754 57.207 16.8828 56.6562 16.4023C56.1055 15.9219 55.666 15.3418 55.3379 14.6621C55.0215 13.9707 54.875 13.1621 54.8984 12.2363C54.9102 11.3223 55.1328 10.5547 55.5664 9.93359C56 9.30078 56.5625 8.79688 57.2539 8.42188C57.9453 8.03516 58.7363 7.75977 59.627 7.5957C60.5176 7.41992 61.4375 7.33203 62.3867 7.33203ZM80.9492 7.33203C82.0742 7.33203 83.1758 7.43164 84.2539 7.63086C85.332 7.83008 86.2754 8.09375 87.084 8.42188C86.9199 8.89062 86.7266 9.36523 86.5039 9.8457C86.293 10.3262 86.0762 10.7832 85.8535 11.2168C85.2559 11.0176 84.5586 10.8477 83.7617 10.707C82.9766 10.5664 82.1973 10.4961 81.4238 10.4961C80.9785 10.4961 80.5508 10.5312 80.1406 10.6016C79.7422 10.6602 79.3906 10.7598 79.0859 10.9004C78.793 11.041 78.5586 11.2285 78.3828 11.4629C78.207 11.6855 78.1191 11.9609 78.1191 12.2891C78.1191 12.7461 78.2305 13.1094 78.4531 13.3789C78.6875 13.6367 78.9922 13.8477 79.3672 14.0117C79.7539 14.1758 80.1992 14.3105 80.7031 14.416C81.207 14.5215 81.7344 14.6387 82.2852 14.7676C83.1406 14.9668 83.9375 15.2188 84.6758 15.5234C85.4258 15.8281 86.0703 16.2207 86.6094 16.7012C87.1602 17.1699 87.582 17.75 87.875 18.4414C88.1797 19.1211 88.3262 19.9414 88.3145 20.9023C88.291 21.9336 88.0449 22.8008 87.5762 23.5039C87.1191 24.207 86.5098 24.7754 85.748 25.209C84.998 25.6426 84.1367 25.9531 83.1641 26.1406C82.2031 26.3281 81.2188 26.4219 80.2109 26.4219C79.543 26.4219 78.875 26.3867 78.207 26.3164C77.5391 26.2461 76.9004 26.1406 76.291 26C75.6816 25.8711 75.1133 25.7188 74.5859 25.543C74.0586 25.3555 73.5957 25.1504 73.1973 24.9277C73.3965 24.4707 73.6191 23.9961 73.8652 23.5039C74.1113 23.0117 74.3516 22.5547 74.5859 22.1328C74.9141 22.2734 75.2891 22.4141 75.7109 22.5547C76.1445 22.6836 76.5957 22.8008 77.0645 22.9062C77.5449 23 78.0312 23.082 78.5234 23.1523C79.0273 23.2109 79.5195 23.2402 80 23.2402C80.4922 23.2402 80.9609 23.1992 81.4062 23.1172C81.8516 23.0352 82.2383 22.9062 82.5664 22.7305C82.9062 22.543 83.1699 22.3027 83.3574 22.0098C83.5566 21.7051 83.6562 21.3359 83.6562 20.9023C83.6562 20.4102 83.5391 20.0176 83.3047 19.7246C83.082 19.4316 82.7773 19.1973 82.3906 19.0215C82.0039 18.8457 81.5586 18.7051 81.0547 18.5996C80.5508 18.4941 80.0293 18.3887 79.4902 18.2832C78.6699 18.1191 77.8906 17.8848 77.1523 17.5801C76.4141 17.2754 75.7695 16.8828 75.2188 16.4023C74.668 15.9219 74.2285 15.3418 73.9004 14.6621C73.584 13.9707 73.4375 13.1621 73.4609 12.2363C73.4727 11.3223 73.6953 10.5547 74.1289 9.93359C74.5625 9.30078 75.125 8.79688 75.8164 8.42188C76.5078 8.03516 77.2988 7.75977 78.1895 7.5957C79.0801 7.41992 80 7.33203 80.9492 7.33203ZM108.178 25.1738C107.697 25.373 107.17 25.5488 106.596 25.7012C106.033 25.8535 105.441 25.9824 104.82 26.0879C104.199 26.1934 103.566 26.2754 102.922 26.334C102.289 26.3926 101.668 26.4219 101.059 26.4219C97.9766 26.4219 95.6445 25.6836 94.0625 24.207C92.4922 22.7188 91.707 20.4453 91.707 17.3867C91.707 16.0273 91.8652 14.7383 92.1816 13.5195C92.498 12.3008 93.0078 11.2344 93.7109 10.3203C94.4258 9.39453 95.3574 8.66211 96.5059 8.12305C97.666 7.58398 99.084 7.31445 100.76 7.31445C103.689 7.31445 105.875 8.09375 107.316 9.65234C108.758 11.1992 109.479 13.5664 109.479 16.7539V18.1426H96.4883C96.5117 18.9395 96.6055 19.6426 96.7695 20.252C96.9336 20.8613 97.2031 21.377 97.5781 21.7988C97.9648 22.209 98.4688 22.5254 99.0898 22.748C99.7109 22.959 100.49 23.0645 101.428 23.0645C102.248 23.0645 103.133 22.9648 104.082 22.7656C105.031 22.5547 106.021 22.2559 107.053 21.8691L108.178 25.1738ZM104.662 15.0137C104.58 12.1191 103.279 10.6719 100.76 10.6719C99.459 10.6719 98.4688 11.0469 97.7891 11.7969C97.1211 12.5469 96.7109 13.6191 96.5586 15.0137H104.662ZM119.094 10.8477C119.48 10.2617 119.879 9.75195 120.289 9.31836C120.711 8.87305 121.156 8.50391 121.625 8.21094C122.105 7.90625 122.627 7.68359 123.189 7.54297C123.764 7.39062 124.396 7.31445 125.088 7.31445C125.861 7.31445 126.547 7.40234 127.145 7.57812C127.742 7.74219 128.258 7.98828 128.691 8.31641C129.125 8.63281 129.488 9.03125 129.781 9.51172C130.086 9.98047 130.326 10.5137 130.502 11.1113C130.666 11.709 130.783 12.3594 130.854 13.0625C130.936 13.7539 130.977 14.5039 130.977 15.3125V26H126.16V13.9238C126.16 12.916 125.926 12.1484 125.457 11.6211C125 11.0938 124.373 10.8301 123.576 10.8301C123.131 10.8301 122.691 10.9355 122.258 11.1465C121.836 11.3574 121.426 11.6387 121.027 11.9902C120.629 12.3301 120.26 12.7168 119.92 13.1504C119.58 13.584 119.275 14.0234 119.006 14.4688V26H114.189V14.7324C114.189 13.7832 114.178 12.9922 114.154 12.3594C114.143 11.7148 114.113 11.1465 114.066 10.6543C114.043 10.4082 114.02 10.1914 113.996 10.0039C113.973 9.81641 113.943 9.63477 113.908 9.45898C113.885 9.2832 113.85 9.10742 113.803 8.93164C113.768 8.74414 113.721 8.5332 113.662 8.29883C114.424 8.09961 115.18 7.92383 115.93 7.77148C116.691 7.60742 117.459 7.45508 118.232 7.31445C118.314 7.56055 118.391 7.80664 118.461 8.05273C118.531 8.28711 118.59 8.54492 118.637 8.82617C118.684 9.0957 118.725 9.39453 118.76 9.72266C118.795 10.0508 118.83 10.4258 118.865 10.8477H119.094ZM147.869 7.70117C148.432 7.70117 148.912 7.69531 149.311 7.68359C149.709 7.67187 150.09 7.64258 150.453 7.5957C150.816 7.54883 151.197 7.47852 151.596 7.38477C151.994 7.29102 152.475 7.16797 153.037 7.01562C153.213 7.55469 153.395 8.11719 153.582 8.70312C153.77 9.27734 153.945 9.85156 154.109 10.4258C153.723 10.5664 153.365 10.6836 153.037 10.7773C152.721 10.8711 152.41 10.9531 152.105 11.0234C151.812 11.082 151.52 11.1289 151.227 11.1641C150.945 11.1875 150.641 11.2051 150.312 11.2168C150.535 11.7207 150.688 12.2188 150.77 12.7109C150.852 13.1914 150.893 13.7012 150.893 14.2402C150.893 15.3652 150.723 16.3496 150.383 17.1934C150.043 18.0254 149.557 18.7344 148.924 19.3203C148.537 19.6719 148.098 19.9648 147.605 20.1992C147.113 20.4336 146.598 20.627 146.059 20.7793C145.52 20.9199 144.969 21.0195 144.406 21.0781C143.855 21.1367 143.322 21.166 142.807 21.166C141.857 21.166 140.99 21.0957 140.205 20.9551C140.006 21.5176 139.906 21.9629 139.906 22.291C139.906 22.5137 139.947 22.707 140.029 22.8711C140.123 23.0234 140.27 23.1582 140.469 23.2754C140.773 23.4395 141.137 23.5449 141.559 23.5918C141.992 23.6387 142.467 23.6621 142.982 23.6621C143.135 23.6621 143.328 23.6621 143.562 23.6621C143.809 23.6621 144.061 23.6621 144.318 23.6621C144.576 23.6504 144.822 23.6445 145.057 23.6445C145.303 23.6445 145.514 23.6445 145.689 23.6445C146.627 23.6445 147.477 23.7324 148.238 23.9082C149 24.0723 149.65 24.3418 150.189 24.7168C150.74 25.0918 151.162 25.5898 151.455 26.2109C151.76 26.832 151.912 27.5879 151.912 28.4785C151.912 29.498 151.66 30.3535 151.156 31.0449C150.664 31.748 150.008 32.3164 149.188 32.75C148.367 33.1836 147.43 33.4941 146.375 33.6816C145.32 33.8809 144.23 33.9805 143.105 33.9805C142.297 33.9805 141.488 33.9336 140.68 33.8398C139.883 33.7578 139.109 33.6465 138.359 33.5059C137.773 33.3887 137.217 33.2539 136.689 33.1016C136.174 32.9609 135.693 32.8086 135.248 32.6445C135.4 32.2812 135.623 31.8184 135.916 31.2559C136.221 30.6934 136.555 30.0898 136.918 29.4453C138.113 29.8672 139.25 30.1777 140.328 30.377C141.406 30.5762 142.391 30.6758 143.281 30.6758C143.832 30.6758 144.348 30.6406 144.828 30.5703C145.309 30.5 145.725 30.3828 146.076 30.2188C146.428 30.0547 146.703 29.832 146.902 29.5508C147.113 29.2812 147.219 28.9355 147.219 28.5137C147.219 28.1855 147.148 27.9219 147.008 27.7227C146.867 27.5352 146.674 27.3887 146.428 27.2832C146.182 27.1777 145.889 27.1074 145.549 27.0723C145.221 27.0488 144.863 27.0371 144.477 27.0371C144.312 27.0371 144.143 27.0371 143.967 27.0371C143.791 27.0488 143.615 27.0547 143.439 27.0547H142.877C142.338 27.0547 141.799 27.043 141.26 27.0195C140.732 27.0078 140.223 26.9609 139.73 26.8789C139.238 26.7969 138.781 26.6738 138.359 26.5098C137.938 26.3574 137.568 26.1465 137.252 25.877C136.947 25.5957 136.701 25.25 136.514 24.8398C136.338 24.418 136.25 23.9141 136.25 23.3281C136.25 22.7539 136.361 22.1738 136.584 21.5879C136.807 20.9902 137.088 20.3984 137.428 19.8125C137.111 19.6016 136.795 19.3262 136.479 18.9863C136.174 18.6465 135.898 18.248 135.652 17.791C135.418 17.3223 135.225 16.7949 135.072 16.209C134.932 15.623 134.861 14.9668 134.861 14.2402C134.861 13.1387 135.031 12.166 135.371 11.3223C135.723 10.4668 136.215 9.74023 136.848 9.14258C137.223 8.79102 137.645 8.49805 138.113 8.26367C138.582 8.0293 139.074 7.8418 139.59 7.70117C140.105 7.56055 140.639 7.46094 141.189 7.40234C141.74 7.34375 142.279 7.31445 142.807 7.31445C143.475 7.31445 144.102 7.35547 144.688 7.4375C145.273 7.50781 145.789 7.5957 146.234 7.70117H147.869ZM142.877 10.5664C141.846 10.5664 141.031 10.877 140.434 11.498C139.836 12.1191 139.537 13.0332 139.537 14.2402C139.537 15.4824 139.836 16.4082 140.434 17.0176C141.043 17.6152 141.857 17.9141 142.877 17.9141C143.908 17.9141 144.723 17.6035 145.32 16.9824C145.918 16.3613 146.217 15.4473 146.217 14.2402C146.217 13.0215 145.906 12.1074 145.285 11.498C144.676 10.877 143.873 10.5664 142.877 10.5664ZM172.9 25.1738C172.42 25.373 171.893 25.5488 171.318 25.7012C170.756 25.8535 170.164 25.9824 169.543 26.0879C168.922 26.1934 168.289 26.2754 167.645 26.334C167.012 26.3926 166.391 26.4219 165.781 26.4219C162.699 26.4219 160.367 25.6836 158.785 24.207C157.215 22.7188 156.43 20.4453 156.43 17.3867C156.43 16.0273 156.588 14.7383 156.904 13.5195C157.221 12.3008 157.73 11.2344 158.434 10.3203C159.148 9.39453 160.08 8.66211 161.229 8.12305C162.389 7.58398 163.807 7.31445 165.482 7.31445C168.412 7.31445 170.598 8.09375 172.039 9.65234C173.48 11.1992 174.201 13.5664 174.201 16.7539V18.1426H161.211C161.234 18.9395 161.328 19.6426 161.492 20.252C161.656 20.8613 161.926 21.377 162.301 21.7988C162.688 22.209 163.191 22.5254 163.812 22.748C164.434 22.959 165.213 23.0645 166.15 23.0645C166.971 23.0645 167.855 22.9648 168.805 22.7656C169.754 22.5547 170.744 22.2559 171.775 21.8691L172.9 25.1738ZM169.385 15.0137C169.303 12.1191 168.002 10.6719 165.482 10.6719C164.182 10.6719 163.191 11.0469 162.512 11.7969C161.844 12.5469 161.434 13.6191 161.281 15.0137H169.385ZM183.939 10.8477C184.361 10.2266 184.754 9.7168 185.117 9.31836C185.469 8.93164 185.838 8.61523 186.225 8.36914C186.611 8.11133 186.998 7.90625 187.385 7.75391C187.783 7.58984 188.182 7.47852 188.58 7.41992C188.979 7.34961 189.371 7.31445 189.758 7.31445C190.086 7.31445 190.402 7.33789 190.707 7.38477C191.023 7.41992 191.316 7.4668 191.586 7.52539C191.551 7.85352 191.504 8.20508 191.445 8.58008C191.387 8.94336 191.322 9.3125 191.252 9.6875C191.182 10.0625 191.1 10.4316 191.006 10.7949C190.924 11.1582 190.836 11.498 190.742 11.8145C190.074 11.6855 189.494 11.5801 189.002 11.498C188.51 11.4043 188.07 11.3574 187.684 11.3574C187.32 11.3574 186.986 11.4102 186.682 11.5156C186.389 11.6094 186.096 11.7793 185.803 12.0254C185.51 12.2715 185.205 12.5996 184.889 13.0098C184.584 13.4082 184.238 13.9121 183.852 14.5215V26H179.035V14.7324C179.035 14.0527 179.029 13.4199 179.018 12.834C179.006 12.2363 178.982 11.6797 178.947 11.1641C178.912 10.6367 178.859 10.1387 178.789 9.66992C178.719 9.20117 178.625 8.74414 178.508 8.29883C179.27 8.09961 180.025 7.91797 180.775 7.75391C181.537 7.58984 182.305 7.44336 183.078 7.31445C183.16 7.56055 183.236 7.80664 183.307 8.05273C183.377 8.28711 183.436 8.54492 183.482 8.82617C183.529 9.0957 183.57 9.39453 183.605 9.72266C183.641 10.0508 183.676 10.4258 183.711 10.8477H183.939Z" fill="white"/>
</svg>
